<svg
					width="24"
					height="24"
					viewBox="0 0 24 24"
					fill="none"
					xmlns="http://www.w3.org/2000/svg"
					class="text-brand-accent-primary"
				>
					<path
						fill-rule="evenodd"
						clip-rule="evenodd"
						d="M12 2C17.5228 2 22 6.47715 22 12C22 17.5228 17.5228 22 12 22C6.47715 22 2 17.5228 2 12C2 6.47715 6.47715 2 12 2ZM12 4C7.58172 4 4 7.58172 4 12C4 16.4183 7.58172 20 12 20C16.4183 20 20 16.4183 20 12C20 7.58172 16.4183 4 12 4Z"
						fill="currentColor"
						fill-opacity="0.3"
					/>
					<path
						d="M12 6C8.68629 6 6 8.68629 6 12C6 15.3137 8.68629 18 12 18C15.3137 18 18 15.3137 18 12C18 9.5 16.5 7.4 14.5 6.5"
						stroke="currentColor"
						stroke-width="1.5"
						stroke-linecap="round"
					/>
					<path d="M15 15L17 17" stroke="currentColor" stroke-width="1.5" stroke-linecap="round" />
				</svg>