<svg xmlns="http://www.w3.org/2000/svg" viewBox="0 0 987.05 517.4"><defs><style>.cls-1,.cls-2{fill:#00995e;}.cls-1{fill-rule:evenodd;opacity:0.5;}.cls-3{fill:#d6f2e7;}.cls-4{fill:none;stroke:#00995e;stroke-linecap:round;stroke-linejoin:round;stroke-width:3px;}.cls-5{fill:#fff;}</style></defs><g id="Layer_2" data-name="Layer 2"><g id="Layer_1-2" data-name="Layer 1"><path class="cls-1" d="M190.29,0C295.38,0,380.58,85.2,380.58,190.29s-85.2,190.29-190.29,190.29S0,295.38,0,190.29,85.2,0,190.29,0Zm0,38.06A152.23,152.23,0,1,0,342.52,190.29,152.22,152.22,0,0,0,190.29,38.06Z"/><path class="cls-2" d="M190.29,313.52a123.24,123.24,0,1,1,0-246.47,9.07,9.07,0,0,1,0,18.13A105.11,105.11,0,1,0,295.4,190.29c0-41.81-24-79.65-61.26-96.4a9.06,9.06,0,0,1,7.44-16.52c43.7,19.66,71.94,64,71.94,112.92A123.37,123.37,0,0,1,190.29,313.52Z"/><path class="cls-2" d="M363.84,380.67a9,9,0,0,1-6.41-2.65L214.27,234.86a9.06,9.06,0,0,1,12.81-12.81L370.24,365.21a9.06,9.06,0,0,1-6.4,15.46Z"/><path class="cls-3" d="M276.8,513.78q-9.49-3.61-14.82-9.36l3.14-5.19a37,37,0,0,0,13.59,8.67,48.61,48.61,0,0,0,18,3.35q13.67,0,20.63-5.19a16.11,16.11,0,0,0,7-13.53q0-6.42-3.69-10.24a24.47,24.47,0,0,0-9.15-5.88,124.46,124.46,0,0,0-14.76-4.23,142.77,142.77,0,0,1-16.87-5.06,27,27,0,0,1-10.8-7.58q-4.44-5.13-4.44-13.73A23.35,23.35,0,0,1,268.26,433a25.1,25.1,0,0,1,11.27-9.22q7.59-3.42,18.93-3.42A53.59,53.59,0,0,1,314,422.71,46,46,0,0,1,327.29,429l-2.6,5.6a44.47,44.47,0,0,0-12.64-6,47.44,47.44,0,0,0-13.59-2q-13.26,0-20.09,5.33a16.71,16.71,0,0,0-6.83,13.8q0,6.42,3.69,10.25a24.45,24.45,0,0,0,9.15,5.87,135.88,135.88,0,0,0,14.9,4.37,141.21,141.21,0,0,1,16.8,5.06,27.61,27.61,0,0,1,10.73,7.45q4.44,5,4.44,13.45a22.76,22.76,0,0,1-3.76,12.71q-3.76,5.75-11.55,9.15t-19.12,3.42A55.78,55.78,0,0,1,276.8,513.78Z"/><path class="cls-3" d="M393,427.36H358.57v-6.29H434.4v6.29H400v89.36h-7Z"/><path class="cls-3" d="M480.11,506.88q-10-10.51-10.05-30.74V421.07h7v54.79q0,17.63,8.06,26.37T508.46,511q15.17,0,23.23-8.75t8.06-26.37V421.07h7v55.07q0,20.22-10.11,30.74T508.32,517.4Q490.16,517.4,480.11,506.88Z"/><path class="cls-3" d="M600.41,421.07h37.85q14.9,0,26.44,6.15a45,45,0,0,1,18,17,50.52,50.52,0,0,1,0,49.33,45,45,0,0,1-18,17q-11.55,6.15-26.44,6.15H600.41Zm37.3,89.36a49.91,49.91,0,0,0,23.37-5.26,37.52,37.52,0,0,0,15.57-14.69,45.32,45.32,0,0,0,0-43.17,37.58,37.58,0,0,0-15.57-14.69,49.91,49.91,0,0,0-23.37-5.26H607.38v83.07Z"/><path class="cls-3" d="M734.45,421.07h7v95.65h-7Z"/><path class="cls-3" d="M811.1,511.05a46.77,46.77,0,0,1-17.83-17.42,50.29,50.29,0,0,1,0-49.46,46.72,46.72,0,0,1,17.83-17.43,54.24,54.24,0,0,1,50.82-.06A46.24,46.24,0,0,1,879.75,444a50.88,50.88,0,0,1,0,49.73,46.17,46.17,0,0,1-17.83,17.35,54.24,54.24,0,0,1-50.82-.06Zm47.13-5.54a40.26,40.26,0,0,0,15.31-15.09,44.15,44.15,0,0,0,0-43,40.29,40.29,0,0,0-15.31-15.1,46,46,0,0,0-43.51,0,40,40,0,0,0-15.37,15.1,44.08,44.08,0,0,0,0,43,40,40,0,0,0,15.37,15.09,46,46,0,0,0,43.51,0Z"/><line class="cls-4" x1="168.8" y1="441.74" x2="245.67" y2="441.74"/><line class="cls-4" x1="140.28" y1="471.47" x2="222.37" y2="471.47"/><line class="cls-4" x1="227.49" y1="501.2" x2="186.99" y2="501.2"/><path class="cls-5" d="M490.66,316.89v24.78H419.32V34.49h71.34V165.57c13.89-16.9,31.17-31.54,61.58-31.54,48.44,0,90.12,40.18,90.12,105.14v.75c0,66.08-41.68,106.26-89.74,106.26C521.83,346.18,503.8,332.29,490.66,316.89Zm81.48-76.6v-.75c0-26.66-18.4-45.81-41.68-45.81-22.9,0-41.3,19.15-41.3,45.81v.75c0,27,18.4,46.19,41.3,46.19C553.74,286.48,572.14,267.7,572.14,240.29Z"/><rect class="cls-5" x="673.15" y="44.84" width="74.35" height="74" rx="37"/><rect class="cls-5" x="674.65" y="143.04" width="71.34" height="203.14"/><path class="cls-5" d="M785.79,143h71.34v28.54c13.15-16.9,31.92-33.05,60.83-33.05,43.18,0,69.09,28.54,69.09,74.73V346.18H915.71v-110c0-22.15-11.64-34.17-28.54-34.17-17.27,0-30,12-30,34.17v110H785.79Z"/></g></g></svg>