<svg xmlns="http://www.w3.org/2000/svg" viewBox="0 0 1360.25 253.62"><defs><style>.cls-1,.cls-2{fill:#00995e;}.cls-1{fill-rule:evenodd;opacity:0.3;}</style></defs><g id="Layer_2" data-name="Layer 2"><g id="Layer_1-2" data-name="Layer 1"><path class="cls-1" d="M126.78,0A126.78,126.78,0,1,1,0,126.78,126.78,126.78,0,0,1,126.78,0Zm0,25.36A101.42,101.42,0,1,0,228.2,126.78,101.41,101.41,0,0,0,126.78,25.36Z"/><path class="cls-2" d="M126.78,208.88a82.11,82.11,0,1,1,0-164.21,6,6,0,0,1,0,12.08,70,70,0,1,0,70,70c0-27.86-16-53.07-40.81-64.22a6,6,0,1,1,4.95-11c29.12,13.1,47.93,42.63,47.93,75.23A82.19,82.19,0,0,1,126.78,208.88Z"/><path class="cls-2" d="M242.4,253.62a6,6,0,0,1-4.27-1.77l-95.37-95.38a6,6,0,1,1,8.53-8.53l95.38,95.38a6,6,0,0,1-4.27,10.3Z"/><path d="M326.9,211.13v16.51H279.37V23H326.9v87.33c9.26-11.26,20.76-21,41-21,32.27,0,60,26.76,60,70v.5c0,44-27.77,70.8-59.79,70.8C347.66,230.64,335.66,221.38,326.9,211.13Zm54.29-51v-.5c0-17.76-12.26-30.52-27.77-30.52-15.26,0-27.52,12.76-27.52,30.52v.5c0,18,12.26,30.77,27.52,30.77C368.93,190.86,381.19,178.36,381.19,160.09Z"/><rect x="448.48" y="29.88" width="49.53" height="49.3" rx="24.65"/><rect x="449.48" y="95.3" width="47.53" height="135.34"/><path d="M523.53,95.3h47.53v19c8.76-11.26,21.27-22,40.53-22,28.77,0,46,19,46,49.78v88.56H610.09v-73.3c0-14.76-7.76-22.76-19-22.76-11.5,0-20,8-20,22.76v73.3H523.53Z"/><path d="M691.66,228.2v-21h18.4v21Z"/><path d="M758.86,132.05a17.79,17.79,0,0,0,5.8,7.31,42,42,0,0,0,11.6,6,137.12,137.12,0,0,0,19,5.11q23.4,5.21,34.5,14.42t11.1,25.44a37,37,0,0,1-13.36,29,44.14,44.14,0,0,1-15,8,63,63,0,0,1-19.2,2.8,83.88,83.88,0,0,1-30.7-5.42A86.67,86.67,0,0,1,736.06,208l9.8-11.6a82.24,82.24,0,0,0,22.2,14.9q11.19,4.9,25.8,4.9,14.19,0,22.7-6.61a21,21,0,0,0,8.5-17.42,23.33,23.33,0,0,0-1.61-8.92,18,18,0,0,0-5.61-7.11,40.16,40.16,0,0,0-11.13-5.81,144.38,144.38,0,0,0-18.14-5,143.65,143.65,0,0,1-21-6,51.81,51.81,0,0,1-14.74-8.21,30.2,30.2,0,0,1-8.62-11.21,37.82,37.82,0,0,1-2.8-15.23,34.86,34.86,0,0,1,3.4-15.42,35.65,35.65,0,0,1,9.6-12.12,46.86,46.86,0,0,1,14.6-8,55.86,55.86,0,0,1,18.4-2.91q15.39,0,26.9,4.24a81.87,81.87,0,0,1,22.3,12.76l-9.2,12.2a68.51,68.51,0,0,0-19.7-11.6,60.1,60.1,0,0,0-20.7-3.6,39.35,39.35,0,0,0-12.3,1.81,31.14,31.14,0,0,0-9.4,4.8,20.81,20.81,0,0,0-6,7.21,19.93,19.93,0,0,0-2.1,9A24,24,0,0,0,758.86,132.05Z"/><path d="M890.26,198.8q0,9.6,4.8,13.4t12.6,3.8a31,31,0,0,0,15-3.6v13.2a34.4,34.4,0,0,1-8.5,3.3,42.81,42.81,0,0,1-10.1,1.1,40.5,40.5,0,0,1-11.6-1.6,23.68,23.68,0,0,1-9.3-5.1,23.39,23.39,0,0,1-6.1-9.1,36.55,36.55,0,0,1-2.2-13.4V138.4h-14.4V124.8h14.4V93.6h15.4v31.2h32.8v13.6h-32.8Z"/><path d="M1023.66,124.8h15.2V228.2h-15.2v-18a48.68,48.68,0,0,1-13.6,14.3q-8.4,5.9-21.8,5.9a43.6,43.6,0,0,1-16.7-3,34.52,34.52,0,0,1-12.4-8.5,37.34,37.34,0,0,1-7.8-13.1,49.84,49.84,0,0,1-2.7-16.8V124.8h15.4v60.4q0,14.4,7.4,22.8t21.2,8.4a32.43,32.43,0,0,0,12.3-2.3,27.63,27.63,0,0,0,9.8-6.6,31.89,31.89,0,0,0,6.5-10.3,35.23,35.23,0,0,0,2.4-13.2Z"/><path d="M1156.46,228.2V207.4a80.88,80.88,0,0,1-7.1,8.8,48.53,48.53,0,0,1-8.7,7.4,40.27,40.27,0,0,1-10.7,5,44.81,44.81,0,0,1-13.1,1.8,47.59,47.59,0,0,1-18.2-3.6,48.41,48.41,0,0,1-15.8-10.5,51.18,51.18,0,0,1-11.2-16.9,58.37,58.37,0,0,1-4.2-22.8,58.44,58.44,0,0,1,4.2-22.8,51.28,51.28,0,0,1,11.2-16.9,49.85,49.85,0,0,1,15.8-10.6,46.6,46.6,0,0,1,18.2-3.7,45.8,45.8,0,0,1,13.2,1.8,44.26,44.26,0,0,1,10.8,4.8,46.85,46.85,0,0,1,8.7,7,62.76,62.76,0,0,1,6.9,8.4V82.2h15.4v146Zm-2.5-68.11a37.86,37.86,0,0,0-8.4-12.54,39.58,39.58,0,0,0-12-8.06,34.7,34.7,0,0,0-13.9-2.89,37.31,37.31,0,0,0-14.2,2.69,33.17,33.17,0,0,0-11.5,7.76,37,37,0,0,0-7.8,12.54,46,46,0,0,0-2.9,16.81,44.6,44.6,0,0,0,2.9,16.52,38.67,38.67,0,0,0,7.9,12.64,34.2,34.2,0,0,0,11.6,8.06,35.73,35.73,0,0,0,14,2.78,34.86,34.86,0,0,0,13.9-2.88,39.58,39.58,0,0,0,12-8.06,37.59,37.59,0,0,0,8.4-12.64,42.5,42.5,0,0,0,3.1-16.42A41.73,41.73,0,0,0,1154,160.09Z"/><path d="M1206.65,102.2v-17h17.6v17Zm1,126V124.8h15.4V228.2Z"/><path d="M1356.15,197.3a54.27,54.27,0,0,1-11.3,17.3,52.55,52.55,0,0,1-17.2,11.7,54.06,54.06,0,0,1-21.6,4.3,52.62,52.62,0,0,1-21.4-4.3,54.06,54.06,0,0,1-17-11.6,52,52,0,0,1-11.2-17.1,54.41,54.41,0,0,1-4-20.8,55.21,55.21,0,0,1,4-20.9,52.5,52.5,0,0,1,28.3-29,54.69,54.69,0,0,1,60.3,11.6,52.25,52.25,0,0,1,11.2,17.1,55.7,55.7,0,0,1-.1,41.7Zm-14.6-36.36a39.4,39.4,0,0,0-8.1-12.87,38.81,38.81,0,0,0-12.2-8.67,36.17,36.17,0,0,0-15.2-3.2,37.57,37.57,0,0,0-15.4,3.1,34.39,34.39,0,0,0-11.9,8.57,41.21,41.21,0,0,0-7.7,12.77,43.23,43.23,0,0,0-2.8,15.66,42.76,42.76,0,0,0,2.9,15.76,39,39,0,0,0,8,12.77,38.45,38.45,0,0,0,12.1,8.58,36.17,36.17,0,0,0,15.2,3.19,37.73,37.73,0,0,0,15.4-3.09,36,36,0,0,0,12-8.48,39,39,0,0,0,7.8-12.67,44.73,44.73,0,0,0-.1-31.42Z"/></g></g></svg>