<svg xmlns="http://www.w3.org/2000/svg" viewBox="0 0 987.05 510.43"><defs><style>.cls-1{fill:none;stroke:#00995e;stroke-linecap:round;stroke-linejoin:round;stroke-width:3px;}.cls-2,.cls-3{fill:#00995e;}.cls-2{fill-rule:evenodd;opacity:0.3;}.cls-4{fill:#111212;}</style></defs><g id="Layer_2" data-name="Layer 2"><g id="Layer_1-2" data-name="Layer 1"><path d="M257.06,506.81q-9.5-3.62-14.82-9.36l3.14-5.19a37,37,0,0,0,13.6,8.68,48.79,48.79,0,0,0,18,3.34q13.67,0,20.63-5.19a16.11,16.11,0,0,0,7-13.53q0-6.42-3.69-10.24a24.47,24.47,0,0,0-9.15-5.88,127.22,127.22,0,0,0-14.76-4.23,143.36,143.36,0,0,1-16.87-5.06,26.88,26.88,0,0,1-10.79-7.58q-4.46-5.13-4.44-13.73a23.34,23.34,0,0,1,3.68-12.78,25.07,25.07,0,0,1,11.28-9.22q7.57-3.42,18.92-3.42a53.38,53.38,0,0,1,15.58,2.33A46,46,0,0,1,307.55,422l-2.6,5.6a44.34,44.34,0,0,0-12.64-6,47.79,47.79,0,0,0-13.59-2.05q-13.26,0-20.08,5.33a16.7,16.7,0,0,0-6.84,13.8q0,6.42,3.69,10.25a24.29,24.29,0,0,0,9.16,5.87,137.53,137.53,0,0,0,14.89,4.38,139.59,139.59,0,0,1,16.8,5.05,27.61,27.61,0,0,1,10.73,7.45q4.44,5,4.44,13.45a22.66,22.66,0,0,1-3.76,12.71Q304,503.61,296.21,507t-19.13,3.41A55.56,55.56,0,0,1,257.06,506.81Z"/><path d="M373.27,420.39H338.84v-6.28h75.83v6.28H380.24v89.36h-7Z"/><path d="M460.37,499.91q-10-10.52-10-30.74V414.11h7V468.9q0,17.63,8.06,26.37T488.72,504q15.16,0,23.23-8.74T520,468.9V414.11h7v55.06q0,20.22-10.11,30.74t-28.29,10.52Q470.42,510.43,460.37,499.91Z"/><path d="M580.67,414.11h37.85q14.9,0,26.44,6.15a44.86,44.86,0,0,1,18,17,50.57,50.57,0,0,1,0,49.32,45,45,0,0,1-18,17q-11.55,6.15-26.44,6.15H580.67ZM618,503.46a49.87,49.87,0,0,0,23.36-5.26,37.65,37.65,0,0,0,15.58-14.68,45.42,45.42,0,0,0,0-43.18,37.73,37.73,0,0,0-15.58-14.69A50,50,0,0,0,618,420.39H587.64v83.07Z"/><path d="M714.71,414.11h7v95.64h-7Z"/><path d="M791.36,504.08a46.77,46.77,0,0,1-17.83-17.42,50.36,50.36,0,0,1,0-49.46,46.7,46.7,0,0,1,17.83-17.42,51,51,0,0,1,25.41-6.36,51.59,51.59,0,0,1,25.42,6.29A46.31,46.31,0,0,1,860,437.06a50.88,50.88,0,0,1,0,49.73,46.33,46.33,0,0,1-17.83,17.36,54.3,54.3,0,0,1-50.83-.07Zm47.14-5.53a40.41,40.41,0,0,0,15.3-15.1,44.15,44.15,0,0,0,0-43,40.33,40.33,0,0,0-15.3-15.1,46.09,46.09,0,0,0-43.52,0,40.1,40.1,0,0,0-15.37,15.1,44.15,44.15,0,0,0,0,43A40.17,40.17,0,0,0,795,498.55a46.09,46.09,0,0,0,43.52,0Z"/><line class="cls-1" x1="149.07" y1="434.77" x2="225.94" y2="434.77"/><line class="cls-1" x1="120.55" y1="464.5" x2="202.63" y2="464.5"/><line class="cls-1" x1="207.75" y1="494.23" x2="167.25" y2="494.23"/><path class="cls-2" d="M190.29,0C295.38,0,380.58,85.2,380.58,190.29s-85.2,190.29-190.29,190.29S0,295.38,0,190.29,85.2,0,190.29,0Zm0,38.06A152.23,152.23,0,1,0,342.52,190.29,152.22,152.22,0,0,0,190.29,38.06Z"/><path class="cls-3" d="M190.29,313.52a123.24,123.24,0,1,1,0-246.47,9.07,9.07,0,0,1,0,18.13A105.11,105.11,0,1,0,295.4,190.29c0-41.81-24-79.65-61.26-96.4a9.06,9.06,0,0,1,7.44-16.52c43.7,19.66,71.94,64,71.94,112.92A123.37,123.37,0,0,1,190.29,313.52Z"/><path class="cls-3" d="M363.84,380.67a9,9,0,0,1-6.41-2.65L214.27,234.86a9.06,9.06,0,0,1,12.81-12.81L370.24,365.21a9.06,9.06,0,0,1-6.4,15.46Z"/><path class="cls-4" d="M490.66,316.89v24.78H419.32V34.49h71.34V165.57c13.89-16.9,31.17-31.54,61.58-31.54,48.44,0,90.12,40.18,90.12,105.14v.75c0,66.08-41.68,106.26-89.74,106.26C521.83,346.18,503.8,332.29,490.66,316.89Zm81.48-76.6v-.75c0-26.66-18.4-45.81-41.68-45.81-22.9,0-41.3,19.15-41.3,45.81v.75c0,27,18.4,46.19,41.3,46.19C553.74,286.48,572.14,267.7,572.14,240.29Z"/><rect class="cls-4" x="673.15" y="44.84" width="74.35" height="74" rx="37"/><rect class="cls-4" x="674.65" y="143.04" width="71.34" height="203.14"/><path class="cls-4" d="M785.79,143h71.34v28.54c13.15-16.9,31.92-33.05,60.83-33.05,43.18,0,69.09,28.54,69.09,74.73V346.18H915.71v-110c0-22.15-11.64-34.17-28.54-34.17-17.27,0-30,12-30,34.17v110H785.79Z"/></g></g></svg>